#!OML:ASF F:\VICON\USERDATA\INSTALL\rory3\rory3.ASF
:FULLY-SPECIFIED
:DEGREES
1205
root 0.136167 17.8122 1.36329 4.28028 17.3461 -5.35567
lowerback 6.00306 2.97575 0.342365
upperback 1.21667 3.90238 -4.17479
thorax -1.78899 1.95147 -4.79368
lowerneck -21.6271 -14.0821 -15.378
upperneck 13.6383 -18.4382 17.7143
head 11.1811 -7.60844 5.50418
rclavicle 9.89948e-014 -5.08889e-014
rhumerus 30.2891 8.04028 -9.70796
rradius 56.7013
rwrist 29.4081
rhand -62.4406 4.42359
rfingers 7.12502
rthumb -34.472 -22.2541
lclavicle 9.89948e-014 -5.08889e-014
lhumerus -44.1739 16.611 52.2471
lradius 39.9946
lwrist -3.11018
lhand -18.1544 23.1982
lfingers 7.12502
lthumb 8.12127 53.0221
rfemur -11.5709 -7.8701 24.0662
rtibia 27.9589
rfoot -22.9035 -15.1267
rtoes 1.99478
lfemur -14.1762 -7.77719 -2.93029
ltibia 24.0471
lfoot -11.9513 1.56302
ltoes -28.8978
1206
root 0.106619 17.8219 1.37066 4.36324 17.2168 -5.23791
lowerback 6.01708 2.95332 0.48138
upperback 1.16615 3.8791 -4.19123
thorax -1.84047 1.93796 -4.89066
lowerneck -21.54 -14.0987 -15.4497
upperneck 13.4673 -18.4479 17.8155
head 11.1257 -7.6168 5.55065
rclavicle -6.40087e-014 3.81667e-014
rhumerus 30.8031 5.76015 -10.4854
rradius 55.6224
rwrist 27.5509
rhand -61.5889 4.81847
rfingers 7.12502
rthumb -33.6631 -22.0394
lclavicle -6.40087e-014 3.81667e-014
lhumerus -44.1007 16.8743 52.2388
lradius 39.7477
lwrist -3.27234
lhand -18.0266 22.8273
lfingers 7.12502
lthumb 8.24469 52.6464
rfemur -11.581 -7.80455 24.0572
rtibia 27.8637
rfoot -22.8399 -15.1375
rtoes 1.85555
lfemur -14.159 -7.68243 -2.95707
ltibia 24.1073
lfoot -11.8624 1.55124
ltoes -28.7473
1207
root 0.0781583 17.8271 1.38023 4.42128 17.0849 -5.12913
lowerback 5.98979 2.93146 0.610405
upperback 1.11127 3.85642 -4.22376
thorax -1.87305 1.92497 -4.99644
lowerneck -21.3294 -14.0609 -15.3233
upperneck 13.2445 -18.4203 17.7991
head 10.9877 -7.61938 5.537
rclavicle 8.82604e-014 -3.81667e-014
rhumerus 31.2199 3.6161 -11.3155
rradius 54.6436
rwrist 25.9318
rhand -60.9959 3.67001
rfingers 7.12502
rthumb -33.0994 -23.3092
lclavicle 8.82604e-014 -3.81667e-014
lhumerus -44.0634 17.1073 52.1402
lradius 39.5119
lwrist -3.48143
lhand -18.1043 22.5641
lfingers 7.12502
lthumb 8.16971 52.3862
rfemur -11.5834 -7.75371 24.0554
rtibia 27.8013
rfoot -22.7787 -15.1381
rtoes 1.68074
lfemur -14.1936 -7.64673 -2.97008
ltibia 24.1027
lfoot -11.644 1.59777
ltoes -28.3464
1208
root 0.051977 17.8307 1.39278 4.46199 16.943 -4.93215
lowerback 5.99126 2.89695 0.669055
upperback 1.10946 3.81372 -4.24968
thorax -1.8739 1.90344 -5.05403
lowerneck -21.4761 -14.1172 -15.2107
upperneck 13.3405 -18.4807 17.6
head 11.0206 -7.64844 5.42875
rclavicle -2.18663e-014 -4.77083e-015
rhumerus 31.7898 1.52078 -12.1136
rradius 53.6251
rwrist 24.4884
rhand -60.606 1.00629
rfingers 7.12502
rthumb -32.7286 -26.0508
lclavicle -2.18663e-014 -4.77083e-015
lhumerus -43.9848 17.5364 52.0855
lradius 39.2688
lwrist -3.69616
lhand -18.1362 22.4547
lfingers 7.12502
lthumb 8.13892 52.2779
rfemur -11.5466 -7.75556 23.9411
rtibia 27.7809
rfoot -22.6964 -15.0915
rtoes 1.26183
lfemur -14.12 -7.7057 -3.10153
ltibia 24.0675
lfoot -11.4299 1.77799
ltoes -27.3432
1209
root 0.0249011 17.8333 1.40479 4.44023 16.8476 -4.72961
lowerback 6.07494 2.87523 0.72841
upperback 1.11013 3.78705 -4.2641
thorax -1.91742 1.88918 -5.10629
lowerneck -21.7145 -14.2908 -15.1693
upperneck 13.5942 -18.6882 17.3514
head 11.1527 -7.74158 5.27673
rclavicle -3.18055e-015 -1.59028e-014
rhumerus 32.2924 -0.482178 -12.8664
rradius 52.6627
rwrist 23.2454
rhand -60.5692 -0.829697
rfingers 7.12502
rthumb -32.6935 -27.8941
lclavicle -3.18055e-015 -1.59028e-014
lhumerus -43.9016 17.6952 52.1586
lradius 39.1428
lwrist -3.71815
lhand -18.0404 22.6569
lfingers 7.12502
lthumb 8.23139 52.4765
rfemur -11.4249 -7.69899 23.8129
rtibia 27.74
rfoot -22.7561 -15.01
rtoes 1.62815
lfemur -13.9862 -7.63777 -3.24304
ltibia 24.0247
lfoot -11.2069 1.73295
ltoes -26.6884
1210
root -0.0019176 17.8372 1.41309 4.41469 16.8226 -4.61605
lowerback 6.14392 2.85722 0.856256
upperback 1.03366 3.76823 -4.24681
thorax -2.02954 1.87603 -5.16676
lowerneck -21.6343 -14.4241 -15.1396
upperneck 13.6931 -18.8612 17.1346
head 11.1712 -7.84092 5.15688
rclavicle -1.05356e-013 3.33958e-014
rhumerus 32.6866 -2.37772 -13.6721
rradius 51.7815
rwrist 22.5969
rhand -60.7101 -1.44527
rfingers 7.12502
rthumb -32.8276 -28.4817
lclavicle -1.05356e-013 3.33958e-014
lhumerus -43.9749 17.6134 52.2497
lradius 39.1482
lwrist -3.68646
lhand -17.966 23.0267
lfingers 7.12502
lthumb 8.30313 52.8435
rfemur -11.3148 -7.56378 23.7949
rtibia 27.6573
rfoot -22.8678 -15.0669
rtoes 2.1136
lfemur -13.9034 -7.58399 -3.26011
ltibia 23.9826
lfoot -10.945 1.58686
ltoes -27.6708
1211
root -0.0257382 17.8466 1.41969 4.51338 16.7922 -4.50625
lowerback 6.14288 2.80986 0.96828
upperback 0.914899 3.70979 -4.19453
thorax -2.15364 1.842 -5.17609
lowerneck -21.4311 -14.4344 -15.1262
upperneck 13.6336 -18.8527 16.9559
head 11.0857 -7.86838 5.10002
rclavicle 5.84427e-014 -3.49861e-014
rhumerus 33.3574 -4.38421 -14.7877
rradius 50.726
rwrist 22.8025
rhand -60.7077 -1.37332
rfingers 7.12502
rthumb -32.8254 -28.4102
lclavicle 5.84427e-014 -3.49861e-014
lhumerus -44.0779 17.6676 52.3419
lradius 39.1042
lwrist -3.65704
lhand -18.0856 23.0991
lfingers 7.12502
lthumb 8.1877 52.9204
rfemur -11.345 -7.48122 23.7851
rtibia 27.5847
rfoot -22.8908 -15.1362
rtoes 2.03612
lfemur -13.9339 -7.56951 -3.25765
ltibia 23.9032
lfoot -10.6765 1.47964
ltoes -28.4995
1212
root -0.0495062 17.8591 1.42587 4.5898 16.8183 -4.34819
lowerback 6.19524 2.7483 1.08196
upperback 0.858071 3.63331 -4.1811
thorax -2.2427 1.80046 -5.22664
lowerneck -21.3166 -14.4035 -15.1387
upperneck 13.5233 -18.795 16.9287
head 11.0129 -7.8559 5.10938
rclavicle 8.74653e-015 6.36111e-015
rhumerus 34.1488 -6.62824 -16.2324
rradius 49.5967
rwrist 23.5981
rhand -60.5882 -2.01891
rfingers 7.12502
rthumb -32.7116 -29.0795
lclavicle 8.74653e-015 6.36111e-015
lhumerus -44.0788 17.7454 52.4781
lradius 39.0998
lwrist -3.66239
lhand -18.2158 23.0089
lfingers 7.12502
lthumb 8.06205 52.8352
rfemur -11.3467 -7.44997 23.7129
rtibia 27.5437
rfoot -22.9087 -15.1378
rtoes 2.3859
lfemur -13.9938 -7.69803 -3.30058
ltibia 23.8037
lfoot -10.3699 1.40115
ltoes -28.5207
1213
root -0.0755571 17.8598 1.43396 4.64987 16.8997 -4.18056
lowerback 6.13658 2.71956 1.17874
upperback 0.884998 3.60298 -4.19339
thorax -2.17821 1.78643 -5.28741
lowerneck -21.5369 -14.496 -15.0752
upperneck 13.6321 -18.9026 16.8101
head 11.0866 -7.89596 5.02367
rclavicle -1.19271e-015 -1.27222e-014
rhumerus 34.7475 -8.84981 -17.5296
rradius 48.6165
rwrist 24.3284
rhand -60.7256 -2.80036
rfingers 7.12502
rthumb -32.8423 -29.8337
lclavicle -1.19271e-015 -1.27222e-014
lhumerus -43.8644 17.7534 52.7383
lradius 39.1652
lwrist -3.71524
lhand -18.1643 23.1053
lfingers 7.12502
lthumb 8.11175 52.9296
rfemur -11.3081 -7.37458 23.639
rtibia 27.455
rfoot -22.9939 -15.2043
rtoes 2.98442
lfemur -13.9941 -7.6852 -3.37644
ltibia 23.7298
lfoot -10.1602 1.27016
ltoes -29.4062
1214
root -0.0992838 17.8585 1.44248 4.64526 16.8957 -4.04871
lowerback 6.08841 2.72472 1.27338
upperback 0.895882 3.61774 -4.16169
thorax -2.13477 1.79425 -5.30527
lowerneck -21.5019 -14.5632 -15.1041
upperneck 13.6086 -18.9723 16.7412
head 11.0768 -7.9381 4.98795
rclavicle -2.98177e-014 1.90833e-014
rhumerus 35.4525 -11.033 -18.9875
rradius 47.6514
rwrist 25.4077
rhand -61.3102 -3.80621
rfingers 7.12502
rthumb -33.3982 -30.7215
lclavicle -2.98177e-014 1.90833e-014
lhumerus -43.7052 17.6947 53.045
lradius 39.2497
lwrist -3.75043
lhand -18.276 23.5177
lfingers 7.12502
lthumb 8.00398 53.3462
rfemur -11.1983 -7.30843 23.59
rtibia 27.3475
rfoot -23.0084 -15.3008
rtoes 2.93007
lfemur -13.8514 -7.6516 -3.44169
ltibia 23.6503
lfoot -10.022 1.23884
ltoes -29.7676
1215
root -0.123171 17.8744 1.45378 4.64617 16.8261 -3.97163
lowerback 6.07809 2.73699 1.37128
upperback 0.85809 3.6408 -4.10061
thorax -2.16365 1.80386 -5.29903
lowerneck -21.1674 -14.5481 -15.1605
upperneck 13.3075 -18.9382 16.7733
head 10.9125 -7.95145 5.02773
rclavicle -2.70347e-014 9.54166e-015
rhumerus 36.4322 -13.2663 -20.8569
rradius 46.5967
rwrist 26.903
rhand -62.0743 -4.37715
rfingers 7.12502
rthumb -34.1243 -31.1332
lclavicle -2.70347e-014 9.54166e-015
lhumerus -43.6369 17.8411 53.1927
lradius 39.2209
lwrist -3.96956
lhand -18.3664 23.5703
lfingers 7.12502
lthumb 7.91675 53.4021
rfemur -11.126 -7.2149 23.6115
rtibia 27.2702
rfoot -22.9301 -15.469
rtoes 2.35091
lfemur -13.824 -7.68296 -3.39943
ltibia 23.5634
lfoot -9.74931 1.0795
ltoes -28.4243
